<?xml version="1.0" encoding="UTF-8" standalone="no"?>
<svg
   xmlns:dc="http://purl.org/dc/elements/1.1/"
   xmlns:cc="http://creativecommons.org/ns#"
   xmlns:rdf="http://www.w3.org/1999/02/22-rdf-syntax-ns#"
   xmlns:svg="http://www.w3.org/2000/svg"
   xmlns="http://www.w3.org/2000/svg"
   xmlns:sodipodi="http://sodipodi.sourceforge.net/DTD/sodipodi-0.dtd"
   xmlns:inkscape="http://www.inkscape.org/namespaces/inkscape"
   version="1.1"
   x="0px"
   y="0px"
   viewBox="0 0 200 200"
   id="svg10"
   sodipodi:docname="foodbasket.svg"
   width="200"
   height="200"
   inkscape:version="0.92.2 (5c3e80d, 2017-08-06)">
  <metadata
     id="metadata16">
    <rdf:RDF>
      <cc:Work
         rdf:about="">
        <dc:format>image/svg+xml</dc:format>
        <dc:type
           rdf:resource="http://purl.org/dc/dcmitype/StillImage" />
        <dc:title></dc:title>
      </cc:Work>
    </rdf:RDF>
  </metadata>
  <defs
     id="defs14" />
  <sodipodi:namedview
     pagecolor="#ffffff"
     bordercolor="#666666"
     borderopacity="1"
     objecttolerance="10"
     gridtolerance="10"
     guidetolerance="10"
     inkscape:pageopacity="0"
     inkscape:pageshadow="2"
     inkscape:window-width="1366"
     inkscape:window-height="705"
     id="namedview12"
     showgrid="false"
     inkscape:snap-page="true"
     inkscape:zoom="0.7071068"
     inkscape:cx="-199.37298"
     inkscape:cy="84.462156"
     inkscape:window-x="-8"
     inkscape:window-y="-8"
     inkscape:window-maximized="1"
     inkscape:current-layer="svg10" />
  <g
     transform="matrix(1.7925923,0,0,1.7925926,10.370382,-1696.827)"
     id="g4"
     style="fill:#bec8b7">
    <path
       style="color:#000000;text-indent:0;text-transform:none;direction:ltr;baseline-shift:baseline;display:inline;overflow:visible;visibility:visible;fill:#bec8b7;fill-opacity:1;stroke:none;enable-background:accumulate"
       d="m 56.83753,957.36249 c -0.9818,0.093 -1.81423,1.0125 -1.80997,2 v 8 c -3.5e-4,0.5975 0.28318,1.189 0.74895,1.5625 -0.46237,3.2425 -1.36639,10.2438 -1.56032,17.1563 -4.31772,-5.5401 -10.9426,-8.8754 -17.97489,-9.0626 -1.4839,-0.041 -3.01188,0.1186 -4.36889,0.3123 1.49496,1.1646 2.73648,2.3838 3.9008,3.6874 7.00936,0.056 13.52716,3.8523 16.94508,10.125 -0.4279,0.6503 -0.86633,1.3681 -1.34188,2.2188 -1.41324,2.5281 -2.86921,5.9369 -3.24546,10.00001 H 16.30041 c -0.991771,-6.21101 1.14623,-12.25981 5.30509,-16.50001 -1.39289,-0.6198 -2.54244,-1.2231 -3.71356,-1.875 -4.315291,4.9083 -6.536211,11.5652 -5.648361,18.37501 -1.436449,0 -2.9165191,0 -4.3376891,0 -1.045881,0.049 -1.953011,1.0464 -1.903991,2.0938 0.049,1.0473 1.045371,1.9555 2.091231,1.9062 v 38 c 9e-5,1.0472 0.9515,1.9999 1.9972101,2 h 79.8884 c 1.04571,-10e-5 1.99712,-0.9528 1.99721,-2 v -38 c 1.05462,0.014 2.02405,-0.9438 2.02405,-2 0,-1.0562 -0.96943,-2.0141 -2.02405,-2 h -4.08804 c -0.36584,-4.05091 -1.77699,-7.44671 -3.15185,-9.96881 -0.85309,-1.5623 -1.80046,-2.9547 -2.74616,-4.4062 0.0251,-7.7725 -1.14755,-16.3667 -1.71636,-20.0625 0.45444,-0.3796 0.72561,-0.9699 0.71775,-1.5625 v -8 c -9e-5,-1.0472 -0.9515,-1.9999 -1.99721,-2 -7.71305,-1e-4 -15.54606,0 -22.15655,3e-4 z m 2.18445,4 h 17.97489 v 4 H 59.02198 Z m 0.74895,8 h 16.47699 c 0.32685,2.0106 1.49967,9.3833 1.71635,17 H 58.21061 c 0.18778,-7.5953 1.25406,-14.9518 1.56032,-17 z m -51.8650401,2.3746 c -1.088301,2.6822 0.77962,4.9839 2.4028901,6.625 2.050739,2.0586 5.051719,4.2072 8.61297,6.125 3.56124,1.9178 7.01807,3.2477 9.95484,3.875 2.45696,0.479 5.99123,0.7203 7.36471,-1.375 1.09055,-2.6951 -0.77197,-5.0075 -2.40289,-6.6562 -2.05079,-2.0587 -5.02052,-4.176 -8.58176,-6.0938 -3.56125,-1.9178 -7.04933,-3.279 -9.986051,-3.9062 -2.37044,-0.4615 -5.9602091,-0.582 -7.3647091,1.4062 z m 6.6781691,2.2816 c 2.300711,0.4915 5.450141,1.6694 8.675381,3.4063 3.22523,1.7368 5.91419,3.6997 7.52074,5.3125 0.67205,0.6091 1.18275,1.4234 1.59153,2.1562 -0.93147,0.083 -2.04116,-0.056 -2.80858,-0.219 -2.30065,-0.4914 -5.45015,-1.6694 -8.67538,-3.4063 -3.22523,-1.7369 -5.914131,-3.6997 -7.520741,-5.3124 -0.67207,-0.609 -1.18281,-1.4235 -1.59153,-2.1563 0.91573,-0.082 2.04223,0.056 2.80858,0.219 z m 43.408111,16.3438 h 20.15934 c 1.03933,1.6803 2.26314,3.4318 3.08943,4.9375 1.15079,2.111 2.07085,4.92661 2.4341,8.06251 H 52.34381 c 0.37367,-3.1236 1.34569,-5.91691 2.52772,-8.03121 0.99286,-1.7517 2.15447,-3.3411 3.12064,-4.9688 z m -45.904621,17.00001 h 5.991631 v 6 h -5.991631 z m 9.986051,0 h 5.99163 v 6 H 22.0736 Z m 9.98605,0 h 5.99163 v 6 h -5.99163 z m 9.98605,0 h 5.99163 v 6 H 42.0457 Z m 9.98605,0 h 5.99163 v 6 h -5.99163 z m 9.98605,0 h 5.99163 v 6 H 62.0178 Z m 9.98605,0 h 5.99163 v 6 h -5.99163 z m 9.98605,0 h 3.99442 0.18723 1.80998 v 6 H 81.9899 Z m -69.902351,10 h 5.991631 v 6 h -5.991631 z m 9.986051,0 h 5.99163 v 6 H 22.0736 Z m 9.98605,0 h 5.99163 v 6 h -5.99163 z m 9.98605,0 h 5.99163 v 6 H 42.0457 Z m 9.98605,0 h 5.99163 v 6 h -5.99163 z m 9.98605,0 h 5.99163 v 6 H 62.0178 Z m 9.98605,0 h 5.99163 v 6 h -5.99163 z m 9.98605,0 h 5.99163 v 6 H 81.9899 Z m -69.902351,10 h 5.991631 v 6 h -5.991631 z m 9.986051,0 h 5.99163 v 6 H 22.0736 Z m 9.98605,0 h 5.99163 v 6 h -5.99163 z m 9.98605,0 h 5.99163 v 6 H 42.0457 Z m 9.98605,0 h 5.99163 v 6 h -5.99163 z m 9.98605,0 h 5.99163 v 6 H 62.0178 Z m 9.98605,0 h 5.99163 v 6 h -5.99163 z m 9.98605,0 h 5.99163 v 6 H 81.9899 Z m -69.902351,10 h 5.991631 v 6 h -5.991631 z m 9.986051,0 h 5.99163 v 6 H 22.0736 Z m 9.98605,0 h 5.99163 v 6 h -5.99163 z m 9.98605,0 h 5.99163 v 6 H 42.0457 Z m 9.98605,0 h 5.99163 v 6 h -5.99163 z m 9.98605,0 h 5.99163 v 6 H 62.0178 Z m 9.98605,0 h 5.99163 v 6 h -5.99163 z m 9.98605,0 h 5.99163 v 6 H 81.9899 Z"
       marker="none"
       visibility="visible"
       display="inline"
       overflow="visible"
       id="path2"
       inkscape:connector-curvature="0" />
  </g>
  <rect
     style="opacity:1;vector-effect:none;fill:none;fill-opacity:1;stroke:#bec8b7;stroke-width:10.34447956;stroke-linecap:round;stroke-linejoin:miter;stroke-miterlimit:4;stroke-dasharray:none;stroke-dashoffset:0;stroke-opacity:1;paint-order:markers fill stroke"
     id="rect823"
     width="189.65552"
     height="189.65552"
     x="5.1722336"
     y="5.1722097" />
</svg>
